<svg xmlns="http://www.w3.org/2000/svg" width="256" height="256" viewBox="0 0 256 256" role="img" aria-labelledby="title">
  <title id="title">NodeList icon</title>
  <defs>
    <linearGradient id="g1" x1="0" x2="1" y1="0" y2="1">
      <stop offset="0%" stop-color="#2EB88A"/>
      <stop offset="100%" stop-color="#1586FF"/>
    </linearGradient>
    <filter id="shadow" x="-20%" y="-20%" width="140%" height="140%">
      <feDropShadow dx="0" dy="6" stdDeviation="10" flood-color="#0b1226" flood-opacity="0.12"/>
    </filter>
  </defs>

  <!-- rounded square background -->
  <rect x="12" y="12" width="232" height="232" rx="32" fill="#0f1724"/>

  <!-- soft spotlight -->
  <rect x="12" y="12" width="232" height="232" rx="32" fill="url(#g1)" opacity="0.07"/>

  <!-- content group with shadow -->
  <g transform="translate(44,44)" filter="url(#shadow)">
    <!-- right container (list item box) -->
    <rect x="96" y="16" width="88" height="56" rx="10" fill="url(#g1)"/>
    <!-- small lines inside the box (represent text lines) -->
    <rect x="110" y="28" width="52" height="6" rx="3" fill="white" opacity="0.9"/>
    <rect x="110" y="44" width="36" height="6" rx="3" fill="white" opacity="0.8"/>

    <!-- left nodes and connecting line -->
    <!-- vertical connecting line -->
    <line x1="36" y1="0" x2="36" y2="112" stroke="white" stroke-opacity="0.14" stroke-width="8" stroke-linecap="round"/>

    <!-- nodes -->
    <g transform="translate(36,12)">
      <circle cx="0" cy="0" r="14" fill="#0f1724" stroke="white" stroke-width="3" />
      <circle cx="0" cy="0" r="7" fill="url(#g1)"/>
    </g>

    <g transform="translate(36,56)">
      <circle cx="0" cy="0" r="14" fill="#0f1724" stroke="white" stroke-width="3" />
      <circle cx="0" cy="0" r="7" fill="url(#g1)"/>
    </g>

    <g transform="translate(36,100)">
      <circle cx="0" cy="0" r="14" fill="#0f1724" stroke="white" stroke-width="3" />
      <circle cx="0" cy="0" r="7" fill="url(#g1)"/>
    </g>

    <!-- subtle connecting arcs to the box -->
    <path d="M50 20 C72 20, 86 28, 96 28" fill="none" stroke="white" stroke-opacity="0.12" stroke-width="6" stroke-linecap="round"/>
    <path d="M50 64 C72 64, 86 42, 96 42" fill="none" stroke="white" stroke-opacity="0.12" stroke-width="6" stroke-linecap="round"/>
    <path d="M50 108 C72 108, 86 74, 96 74" fill="none" stroke="white" stroke-opacity="0.12" stroke-width="6" stroke-linecap="round"/>
  </g>

  <!-- outer subtle ring -->
  <rect x="6" y="6" width="244" height="244" rx="36" fill="none" stroke="white" stroke-opacity="0.03" stroke-width="2"/>
</svg>
